<svg width="25" height="25" viewBox="0 0 25 25" fill="none" xmlns="http://www.w3.org/2000/svg">
<path fill-rule="evenodd" clip-rule="evenodd" d="M8.28033 0.21967C7.98744 -0.0732233 7.51256 -0.0732233 7.21967 0.21967C6.92678 0.512563 6.92678 0.987437 7.21967 1.28033L8.93934 3H6.75C3.02208 3 0 6.02208 0 9.75V17.75C0 21.4779 3.02208 24.5 6.75 24.5H14.75C18.4779 24.5 21.5 21.4779 21.5 17.75V9.75C21.5 6.02208 18.4779 3 14.75 3H12.5607L14.2803 1.28033C14.5732 0.987437 14.5732 0.512563 14.2803 0.21967C13.9874 -0.0732233 13.5126 -0.0732233 13.2197 0.21967L10.75 2.68934L8.28033 0.21967ZM1.5 9.75C1.5 6.85051 3.85051 4.5 6.75 4.5H10.75H14.75C17.6495 4.5 20 6.85051 20 9.75V17.75C20 20.6495 17.6495 23 14.75 23H6.75C3.85051 23 1.5 20.6495 1.5 17.75V9.75ZM11.5 12.75C11.5 12.5089 11.3841 12.2825 11.1885 12.1416C10.993 12.0006 10.7415 11.9623 10.5128 12.0385L4.51283 14.0385C4.11987 14.1695 3.9075 14.5942 4.03849 14.9872C4.16947 15.3801 4.59421 15.5925 4.98717 15.4615L10 13.7906V15.75C10 15.9911 10.1159 16.2175 10.3115 16.3584C10.507 16.4994 10.7585 16.5378 10.9872 16.4615L16.9872 14.4615C17.3801 14.3305 17.5925 13.9058 17.4615 13.5128C17.3305 13.1199 16.9058 12.9075 16.5128 13.0385L11.5 14.7094V12.75Z" fill="black"/>
<circle cx="19" cy="6.75" r="4.75" fill="#ED4756" stroke="#FAFAFA" stroke-width="1.5"/>
</svg>
