<svg width="24" height="23" viewBox="0 0 24 23" fill="none" xmlns="http://www.w3.org/2000/svg">
<path fill-rule="evenodd" clip-rule="evenodd" d="M1.54834 22.75V19.75C1.54834 17.5409 3.33879 15.75 5.54771 15.75H18.549C20.7578 15.75 22.5483 17.5454 22.5483 19.75V22.75" fill="black"/>
<path d="M1.54834 22.75V19.75C1.54834 17.5409 3.33879 15.75 5.54771 15.75H18.549C20.7578 15.75 22.5483 17.5454 22.5483 19.75V22.75" stroke="black" stroke-width="1.5"/>
<path fill-rule="evenodd" clip-rule="evenodd" d="M12.0483 11.75C15.0859 11.75 17.5483 9.28757 17.5483 6.25C17.5483 3.21243 15.0859 0.75 12.0483 0.75C9.01077 0.75 6.54834 3.21243 6.54834 6.25C6.54834 9.28757 9.01077 11.75 12.0483 11.75Z" fill="black" stroke="black" stroke-width="1.5"/>
</svg>
