<svg width="22" height="23" viewBox="0 0 22 23" fill="none" xmlns="http://www.w3.org/2000/svg">
<path fill-rule="evenodd" clip-rule="evenodd" d="M8.27262 3.82182H8.85609L9.28621 3.42755L11 1.85657L12.7138 3.42755L13.1439 3.82182H13.7274H19C19.8284 3.82182 20.5 4.49339 20.5 5.32182V19.8217C20.5 20.6501 19.8284 21.3217 19 21.3217H18.6634C18.1901 18.6227 15.8346 16.5717 13 16.5717H9C6.16543 16.5717 3.80992 18.6227 3.33664 21.3217H3C2.17157 21.3217 1.5 20.6501 1.5 19.8217V5.32182C1.5 4.49339 2.17157 3.82182 3 3.82182H8.27262ZM4.86831 21.3217H17.1317C16.682 19.457 15.0028 18.0717 13 18.0717H9C6.99722 18.0717 5.31799 19.457 4.86831 21.3217ZM8.27262 2.32182H3C1.34315 2.32182 0 3.66496 0 5.32182V19.8217C0 21.4785 1.34315 22.8217 3 22.8217H19C20.6569 22.8217 22 21.4785 22 19.8217V5.32182C22 3.66496 20.6569 2.32182 19 2.32182H13.7274L11.3379 0.131423C11.1467 -0.0438077 10.8533 -0.0438076 10.6621 0.131423L8.27262 2.32182ZM15.5 10.3217C15.5 12.8069 13.4853 14.8217 11 14.8217C8.51472 14.8217 6.5 12.8069 6.5 10.3217C6.5 7.83637 8.51472 5.82166 11 5.82166C13.4853 5.82166 15.5 7.83637 15.5 10.3217ZM14 10.3217C14 11.9785 12.6569 13.3217 11 13.3217C9.34315 13.3217 8 11.9785 8 10.3217C8 8.6648 9.34315 7.32166 11 7.32166C12.6569 7.32166 14 8.6648 14 10.3217Z" fill="#9A9A9A"/>
</svg>
